<?xml version="1.0" encoding="UTF-8"?>
<svg id="Layer_1" data-name="Layer 1" xmlns="http://www.w3.org/2000/svg" viewBox="0 0 230.91 230.91">
  <defs>
    <style>
      .cls-1 {
        fill: #ce2128;
      }

      .cls-2 {
        fill: #efbd89;
      }
    </style>
  </defs>
  <circle class="cls-2" cx="115.46" cy="115.46" r="115.46"/>
  <g id="aQLRar">
    <g>
      <path class="cls-1" d="m17.17,87.78c1.13-2.52,1.91-5.3,3.47-7.52,3.53-5.02,8.74-6.89,14.77-6.87,14.65.04,29.29.01,43.94.01,36.9,0,73.8,0,110.69,0,3.4,0,6.71.37,9.73,2.1,5.51,3.15,8.72,7.91,8.8,14.23.19,13.34.18,26.68,0,40.01-.11,8.41-6.79,15.27-15.09,16.01-1.8.16-3.6.26-5.4.26-50.8.01-101.59,0-152.39.02-6.13,0-11.51-1.78-15.1-6.96-1.55-2.23-2.31-5.01-3.43-7.54,0-14.59,0-29.17,0-43.76Zm185.76,33.5c.05-.6.11-.97.11-1.33,0-9.66.02-19.32-.02-28.98,0-1.23-.2-2.49-.53-3.68-1.44-5.2-5.72-8.14-11.74-8.14-51.79,0-103.59,0-155.38,0-8.02,0-12.56,4.58-12.57,12.67,0,9.1,0,18.2,0,27.3,0,.66,0,1.32,0,2.17h2.82c35.34,0,70.68,0,106.02,0,.87,0,1.9-.18,2.57.21.9.54,1.87,1.44,2.17,2.39.42,1.31-.43,2.44-1.79,2.84-.81.24-1.71.27-2.58.27-35.59.01-71.18.01-106.77.01-.78,0-1.56,0-2.45,0,.07,1.28.12,2.25.17,3.43.87,0,1.6,0,2.33,0,17.83,0,35.65,0,53.48,0,2.99,0,4.38.91,4.37,2.85,0,1.96-1.31,2.8-4.39,2.8-17.02,0-34.03,0-51.05,0-.64,0-1.27,0-2.29,0,2.87,3.27,6.12,4.16,9.85,4.16,51.79-.03,103.59-.02,155.38-.02.87,0,1.75.02,2.61-.1,2.76-.38,5.07-1.58,7.15-4.03-1.23,0-1.97,0-2.72,0-34.84,0-69.68,0-104.52,0-3.05,0-4.39-.88-4.38-2.83.02-1.92,1.42-2.82,4.42-2.82,35.71,0,71.43,0,107.14,0,.79,0,1.58,0,2.51,0v-3.43h-2.27c-18.01,0-36.02,0-54.04-.01-.86,0-1.95.12-2.53-.33-.83-.64-1.67-1.7-1.82-2.69-.19-1.31.78-2.32,2.2-2.55.79-.13,1.61-.15,2.42-.15,17.89,0,35.78,0,53.66,0h2.42Z"/>
      <path class="cls-1" d="m88.13,162.46c-1.86,1.16-3.45,2.19-5.1,3.15-.48.28-1.16.55-1.62.41-.5-.15-1.03-.71-1.23-1.22-.3-.76.16-1.42.84-1.85,1.49-.94,2.99-1.86,4.48-2.79.34-.21.66-.44,1.11-.74-1.6-1-3.11-1.94-4.62-2.88-.34-.21-.7-.41-1.02-.65-.89-.65-1.11-1.6-.59-2.39.5-.75,1.43-.97,2.33-.45,1.42.83,2.81,1.73,4.21,2.6.33.2.68.39,1.21.69,0-1.89,0-3.6,0-5.31,0-.51.03-1.03.14-1.53.17-.77.7-1.18,1.49-1.21.84-.03,1.42.36,1.63,1.18.11.42.13.87.14,1.3.01,1.79,0,3.58,0,5.6,1.4-.86,2.64-1.61,3.87-2.37.5-.31.98-.64,1.5-.92.97-.53,1.9-.34,2.41.46.5.79.26,1.79-.66,2.38-1.48.96-2.99,1.86-4.48,2.79-.34.21-.67.44-1.14.73,1.65,1.03,3.22,2,4.8,2.98.34.21.69.42,1.01.66.73.57.92,1.5.47,2.24-.47.77-1.35,1.04-2.2.55-1.8-1.05-3.57-2.16-5.57-3.39,0,.68,0,1.19,0,1.71,0,1.47.02,2.94,0,4.41-.03,1.23-.64,1.93-1.63,1.96-1.05.03-1.73-.66-1.75-1.95-.04-1.97-.01-3.95-.01-6.16Z"/>
      <path class="cls-1" d="m155.22,164.42c1.58.99,3.06,1.91,4.54,2.83.34.21.7.41,1.02.64.9.63,1.16,1.55.68,2.37-.48.81-1.43,1.04-2.4.48-1.42-.83-2.81-1.72-4.21-2.59-.33-.21-.68-.39-1.19-.68,0,1.89,0,3.63,0,5.37,0,.4.03.81-.03,1.21-.14.92-.91,1.6-1.74,1.5-.9-.11-1.51-.61-1.54-1.57-.04-1.72-.03-3.45-.05-5.17,0-.39,0-.78,0-1.39-1.12.68-2.04,1.25-2.96,1.82-.69.42-1.36.86-2.06,1.27-1.24.74-2.27.64-2.8-.23-.57-.95-.24-1.82,1.01-2.61,1.4-.88,2.8-1.74,4.2-2.62.31-.19.6-.39,1.06-.69-1.73-1.08-3.37-2.1-5-3.11-1.51-.94-1.9-1.81-1.24-2.79.62-.93,1.57-.95,3-.07,1.52.94,3.05,1.89,4.8,2.97,0-1.29,0-2.41,0-3.52,0-.95-.03-1.91.02-2.86.05-1.1.77-1.82,1.69-1.79.91.03,1.62.79,1.64,1.87.03,1.83.01,3.67.01,5.5,0,.18,0,.36,0,.76,1.1-.67,2.08-1.26,3.05-1.86.69-.42,1.36-.86,2.05-1.28,1.16-.69,2.17-.57,2.7.32.52.88.18,1.82-.97,2.55-1.49.94-2.98,1.86-4.47,2.79-.24.15-.46.32-.8.56Z"/>
      <path class="cls-1" d="m114.95,173.61c.92-.57,1.59-1.02,2.29-1.4.95-.52,1.91-.28,2.38.54.44.76.2,1.73-.64,2.3-.75.52-1.54.98-2.47,1.56.81.52,1.54.97,2.25,1.44,1.05.69,1.35,1.66.81,2.5-.57.88-1.45,1-2.6.33-.6-.35-1.2-.7-1.8-1.04-.02-.01-.06.02-.23.08,0,.74.03,1.53,0,2.32-.04,1.13-.68,1.79-1.66,1.78-.95,0-1.62-.71-1.65-1.81-.03-.77,0-1.54,0-2.54-.76.46-1.39.85-2.03,1.22-1.14.66-2.03.53-2.59-.37-.54-.86-.23-1.78.84-2.49.37-.24.75-.46,1.12-.7.34-.21.67-.43,1.12-.72-.84-.53-1.6-.98-2.34-1.48-.99-.67-1.26-1.6-.74-2.43.52-.83,1.46-.99,2.5-.41.35.2.68.43,1.03.63.3.18.62.35,1.09.63,0-.94-.02-1.73,0-2.52.04-1.11.68-1.81,1.64-1.82.98-.01,1.62.65,1.67,1.77.03.79,0,1.59,0,2.63Z"/>
      <path class="cls-1" d="m62.05,161.43c-.01-2.84,2.24-5.15,5.05-5.18,2.79-.03,5.11,2.26,5.14,5.08.03,2.82-2.23,5.14-5.04,5.19-2.76.05-5.13-2.3-5.14-5.09Zm6.84-.03c.01-.95-.76-1.74-1.72-1.75-.94-.01-1.78.78-1.79,1.71-.01.94.78,1.72,1.75,1.73.98.01,1.75-.73,1.77-1.69Z"/>
      <path class="cls-1" d="m126.78,148.71c2.86-.02,5.11,2.2,5.13,5.04.02,2.86-2.19,5.11-5.04,5.13-2.86.02-5.12-2.2-5.13-5.04-.02-2.86,2.21-5.12,5.04-5.13Zm-.01,3.33c-.9.03-1.74.92-1.71,1.81.04.91.92,1.74,1.82,1.7.92-.03,1.73-.9,1.7-1.81-.03-.91-.91-1.74-1.81-1.71Z"/>
      <path class="cls-1" d="m113.35,89.26c2.61,0,5.22-.02,7.83,0,1.99.03,3.28,1.18,3.25,2.83-.03,1.65-1.32,2.76-3.32,2.77-5.28.02-10.57.02-15.85,0-2.04,0-3.25-1.05-3.29-2.74-.03-1.78,1.18-2.84,3.35-2.86,2.67-.02,5.35,0,8.02,0Z"/>
      <path class="cls-1" d="m183.65,111.72c.04,2.16-1.72,3.98-3.82,3.97-2.02-.01-3.8-1.77-3.85-3.8-.05-2.16,1.68-3.92,3.86-3.92,2.12,0,3.77,1.62,3.81,3.74Z"/>
      <path class="cls-1" d="m198.59,111.84c-.01,2.07-1.7,3.8-3.76,3.85-2.05.05-3.95-1.84-3.94-3.91.02-2.14,1.83-3.86,4-3.8,2.11.06,3.72,1.73,3.71,3.85Z"/>
    </g>
  </g>
</svg>