<?xml version="1.0" encoding="UTF-8"?>
<svg id="Layer_1" data-name="Layer 1" xmlns="http://www.w3.org/2000/svg" viewBox="0 0 230.91 230.91">
  <defs>
    <style>
      .cls-1 {
        fill: #ce2128;
      }

      .cls-2 {
        fill: #efbd89;
      }
    </style>
  </defs>
  <circle class="cls-2" cx="115.46" cy="115.46" r="115.46"/>
  <g id="kePtuL">
    <g>
      <path class="cls-1" d="m195.81,162.17c-.53,1.11-.92,2.3-1.61,3.3-1.74,2.52-4.26,3.71-7.3,3.78-1.4.03-2.79,0-4.25,0-1.07,3.11-2.7,5.76-5.25,7.83-8.2,6.65-20.54,3.46-24.37-6.4-.46-1.2-1.04-1.45-2.21-1.45-24.99.03-49.98.03-74.98,0-1.22,0-1.76.36-2.2,1.5-2.42,6.31-8.57,10.2-15.37,9.84-6.61-.35-12.3-4.85-14.07-11.19-.28-1.01-.74-1.65-1.75-2.06-2.49-1.01-4.92-2.16-7.38-3.24-3.19-1.41-4.78-3.79-4.76-7.33.05-7.22,0-14.44.02-21.66.01-5.86,3.47-10.28,9.25-11.3,7.38-1.31,13.69-4.46,19.12-9.65,7.15-6.85,15.86-9.84,25.7-9.8,8.83.04,17.67.03,26.5,0,7.87-.03,15.03,2.16,21.56,6.58,6.33,4.28,12.69,8.51,19.12,12.63,3.01,1.93,6.46,2.85,10.14,3.39v-28.17c-.6-.03-1.18-.08-1.75-.08-4.96,0-9.91,0-14.87,0-4.76-.02-7.05-2.31-7.07-7.03,0-3.61,0-7.22,0-10.83,0-.43-.02-.87.04-1.29.21-1.42,1.24-2.37,2.45-2.32,1.31.05,2.26,1.08,2.27,2.63.03,3.88,0,7.76.01,11.64,0,2.2.23,2.44,2.37,2.44,14.49,0,28.98,0,43.47,0,2.2,0,2.36-.16,2.36-2.4,0-14.49,0-28.98,0-43.47,0-2.25-.06-2.31-2.23-2.31-14.54,0-29.09,0-43.63,0-2.22,0-2.33.13-2.34,2.42,0,5.12,0,10.24,0,15.35,0,2.01-.78,3.02-2.3,3.05-1.57.04-2.47-1.04-2.47-3.1-.02-5.33-.04-10.67,0-16,.03-4.14,2.43-6.51,6.55-6.51,14.49,0,28.98.08,43.47-.06,3.71-.04,6.36,1.04,7.76,4.58v48.49c-1.27,3.54-3.85,4.91-7.5,4.74-2.41-.12-4.84-.02-7.26-.02-2.24,0-4.49,0-6.82,0v30.79c1.33.26,2.58.54,3.85.74,5.43.89,10.14,3.08,13.61,7.53,1.94,2.48,3.29,5.24,4.11,8.27v16.16Zm-120.97,2.2h76.95c1.01-9.84,8.21-14.99,15.88-15.07,3.55-.04,6.76,1.16,9.56,3.37,3.76,2.97,5.62,6.95,6.02,11.78,1.22,0,2.34.01,3.46,0,2.67-.03,4.29-1.65,4.31-4.34.03-3.61-.24-7.24.07-10.82.47-5.51-4.93-12.12-9.91-13.32-5.53-1.33-11.09-2.64-16.7-3.51-8.15-1.26-15.5-4.16-22.14-9.05-4.11-3.03-8.46-5.74-12.68-8.62-5.59-3.82-11.74-5.69-18.51-5.66-8.62.04-17.24.15-25.85-.03-9.74-.21-17.97,3.01-24.91,9.85-1.78,1.76-3.91,3.2-6.03,4.57-4.32,2.79-9.21,4.03-14.19,5.04-3,.61-4.99,2.85-5.01,5.71-.06,7.65-.05,15.3,0,22.95,0,.66.36,1.67.86,1.92,2.45,1.27,5,2.34,7.55,3.51,2.32-10.05,9.77-13.29,15.85-13.31,3.36-.01,6.45,1.1,9.15,3.14,3.93,2.97,5.86,7.03,6.28,11.91Zm-15.65,11.43c6.01-.01,10.85-4.86,10.86-10.87.01-5.94-4.94-10.86-10.92-10.85-6.02,0-10.79,4.82-10.8,10.92-.02,6.03,4.8,10.82,10.87,10.81Zm108.37,0c6.05,0,10.82-4.79,10.83-10.85.01-6.01-4.85-10.89-10.85-10.87-5.98.01-10.85,4.89-10.85,10.9,0,6.01,4.84,10.84,10.87,10.83Zm-.94-77.07c0,.77,0,1.4,0,2.04,0,8.34,0,16.68,0,25.02q0,2.47,2.63,2.46v-29.51h-2.63Z"/>
      <path class="cls-1" d="m97.11,52.77c10.25.17,19.52,3.85,27.28,11.22.49.47,1.18,1.1,1.17,1.64-.02.86-.32,1.93-.91,2.51-.93.92-2.06.49-3.05-.28-2.42-1.87-4.73-3.94-7.33-5.51-12.78-7.73-30.18-5.96-41.29,4.05-.56.5-1.09,1.05-1.68,1.51-1.25.98-2.55.93-3.46-.1-.93-1.05-.93-2.4.34-3.42,2.84-2.28,5.65-4.68,8.77-6.54,6.04-3.59,12.73-5.09,20.16-5.09Z"/>
      <path class="cls-1" d="m163.82,72.85c0,3.03.01,5.77,0,8.51,0,1.69-.86,2.44-2.67,2.41-1.75-.03-2.53-.73-2.53-2.37-.01-8.24.02-16.47-.03-24.71,0-1.6.73-2.34,2.19-2.34,3.39.01,6.79-.07,10.16.25,3.92.37,6.55,3.47,6.77,7.42.16,2.78.07,5.5-1.82,7.8-2.09,2.54-5.01,2.92-8.02,3.03-1.28.05-2.56,0-4.03,0Zm.11-13.8v9.64c1.23,0,2.35.03,3.47-.01.7-.02,1.39-.15,2.08-.22,1.4-.15,2.35-1,2.64-2.26.29-1.28.39-2.67.2-3.96-.31-2.07-1.43-3.02-3.48-3.16-1.6-.11-3.21-.02-4.91-.02Z"/>
      <path class="cls-1" d="m95.71,66.46c7.85.21,13.98,2.55,19.1,7.38,1.33,1.25,1.55,2.61.63,3.66-1.02,1.17-2.38,1.18-3.82-.16-4.43-4.11-9.64-6.17-15.69-6.03-5.25.11-9.86,1.95-13.84,5.37-.24.21-.47.44-.72.65-1.49,1.29-2.81,1.36-3.83.19-.98-1.13-.8-2.37.58-3.67,3.56-3.37,7.72-5.63,12.51-6.67,1.93-.42,3.93-.57,5.07-.73Z"/>
      <path class="cls-1" d="m96.75,80.06c2.89.06,5.71,1.06,8.16,3.11,1.59,1.33,1.95,2.64,1.01,3.85-.91,1.17-2.38,1.12-3.96-.13-3.03-2.39-6.63-2.73-9.75-.86-.64.38-1.19.92-1.81,1.34-1.16.8-2.53.65-3.33-.33-.8-1-.7-2.37.35-3.33,2.56-2.34,5.56-3.61,9.33-3.64Z"/>
      <path class="cls-1" d="m89.42,134.59v-17.19c-7.92-.59-15.51.09-21.75,5.71-3.57,3.22-7.16,6.35-11.4,8.67-.52.28-1.09,1.26-.96,1.72.13.48,1.08,1.01,1.69,1.03,2.85.11,5.71,0,8.56.08.76.02,1.75.17,2.21.66.5.52.81,1.61.62,2.28-.18.66-1.09,1.58-1.69,1.59-3.92.11-7.87.26-11.76-.12-2.4-.23-3.94-2.17-4.44-4.58-.5-2.4.23-4.51,2.2-6.03,1.1-.85,2.44-1.38,3.55-2.22,2.36-1.78,4.79-3.51,6.93-5.53,5.86-5.53,12.79-8.16,20.77-8.17,8.99-.02,17.98-.01,26.98,0,6.41,0,12.27,1.8,17.59,5.41,5.88,3.99,11.81,7.89,17.73,11.8,2,1.31,3.35,3.01,3.62,5.44.25,2.26-1.05,3.86-3.31,4.12-.59.07-1.18.07-1.77.07-20.46,0-40.92,0-61.38,0-.48,0-.97.02-1.45-.02-1.65-.13-2.51-.95-2.51-2.36,0-1.42.85-2.28,2.5-2.34,1.88-.07,3.77-.03,5.65-.03.58,0,1.16,0,1.83,0Zm54.73-.09c.08-.12.15-.23.23-.35-.19-.11-.38-.21-.55-.33-6.18-4.11-12.36-8.22-18.55-12.32-3.09-2.04-6.45-3.71-10.13-3.88-6.82-.33-13.66-.23-20.49-.3-.08,0-.17.12-.25.19v16.99h49.75Z"/>
      <path class="cls-1" d="m96.48,147.61c-1.18,0-2.36.04-3.54,0-1.42-.06-2.45-1.01-2.44-2.27.01-1.39.82-2.33,2.13-2.4,2.57-.14,5.15-.15,7.72,0,1.45.08,2.22,1.22,2.07,2.57-.16,1.4-1.03,2.06-2.39,2.1-1.18.03-2.36,0-3.54,0Z"/>
      <path class="cls-1" d="m52,165.01c-.02-3.95,3.23-7.23,7.16-7.23,3.93,0,7.17,3.29,7.14,7.24-.03,3.91-3.19,7.1-7.07,7.14-3.93.04-7.22-3.22-7.23-7.15Z"/>
      <path class="cls-1" d="m167.49,172.16c-3.92-.04-7.23-3.42-7.13-7.29.09-3.87,3.35-7.09,7.18-7.1,3.88-.01,7.24,3.34,7.22,7.23-.02,3.91-3.36,7.2-7.26,7.16Z"/>
    </g>
  </g>
</svg>