<?xml version="1.0" encoding="UTF-8"?>
<svg id="Layer_1" data-name="Layer 1" xmlns="http://www.w3.org/2000/svg" viewBox="0 0 230.91 230.91">
  <defs>
    <style>
      .cls-1 {
        fill: #ce2128;
      }

      .cls-2 {
        fill: #efbd89;
      }
    </style>
  </defs>
  <circle class="cls-1" cx="115.46" cy="115.46" r="115.46"/>
  <g id="UJVZy7">
    <g>
      <path class="cls-2" d="m47.38,137.55c-2.27-5.23-2.25-15.85,0-20.06-.05-.07-.1-.17-.17-.2-5.41-2.24-7.01-4.65-7.02-10.57,0-2.49-.01-4.97,0-7.46.03-4.82,2.07-7.72,6.63-9.45.18-.07.35-.19.63-.35-1.6-2.32-1.75-4.92-1.66-7.58.1-2.99-.09-6.01.3-8.96.56-4.23,4.34-7.38,8.59-7.39,21.21-.03,42.43-.04,63.64,0,3.5,0,6.04,1.83,7.75,4.82.73,1.27.46,2.44-.58,3.06-1.08.64-2.16.32-2.9-1.01-1.17-2.09-2.95-2.93-5.28-2.92-20.55.01-41.11,0-61.66,0-3.7,0-5.71,2.03-5.73,5.75-.01,2.84-.02,5.69,0,8.53.02,3.71,1.98,5.63,5.81,5.63,12.43.01,24.87,0,37.3,0,2.54,0,5.07,0,7.61,0,2.04,0,2.94.64,2.95,2.03,0,1.42-.9,2.07-2.91,2.07-16.85,0-33.7,0-50.55,0-4.01,0-5.93,1.95-5.93,6,0,2.79-.01,5.58,0,8.38.02,3.39,2.11,5.48,5.52,5.49,14.21.01,28.42,0,42.63,0,2.21,0,3.28.67,3.29,2.05,0,1.4-1.06,2.09-3.26,2.09-12.18,0-24.36,0-36.54,0-4.08,0-5.91,1.85-5.92,5.96,0,2.79-.02,5.58,0,8.38.03,3.5,2.1,5.54,5.62,5.54,13.6,0,27.2,0,40.8,0,.51,0,1.04-.06,1.51.07.99.26,1.54.94,1.5,2.01-.04,1.05-.59,1.72-1.63,1.88-.6.09-1.21.08-1.82.08-15.07,0-30.14,0-45.22,0-4.66,0-6.48,1.8-6.48,6.4,0,2.64,0,5.28,0,7.92.01,3.47,2.09,5.59,5.59,5.62,4.01.04,8.02,0,12.03,0,16.34,0,32.68.02,49.02-.03,1.38,0,2.77-.41,4.12-.75,1.17-.3,2.16-.21,2.71.96.56,1.17.12,2.19-1,2.64-1.34.54-2.79,1.13-4.19,1.13-21.11.07-42.22.07-63.33.03-4.81,0-8.73-3.84-8.91-8.64-.13-3.4-.1-6.8-.04-10.2.09-4.46,2.52-7.47,7.16-8.99Z"/>
      <path class="cls-2" d="m145.65,164.63c-25.03-.04-45.15-20.32-45.08-45.41.07-24.78,20.42-44.91,45.35-44.84,24.74.07,44.91,20.4,44.84,45.19-.08,24.93-20.27,45.11-45.11,45.07Zm-41.05-45.19c-.09,22.34,18.32,41.02,40.51,41.12,22.95.1,41.51-18.07,41.63-40.76.11-22.79-18.24-41.27-41.04-41.33-22.59-.05-41.01,18.3-41.1,40.97Z"/>
      <path class="cls-2" d="m178.07,119.57c-.13,17.91-14.84,32.52-32.56,32.34-17.97-.19-32.34-14.75-32.2-32.63.14-18.14,14.71-32.27,33.1-32.12,17.28.14,31.78,14.99,31.66,32.42Zm-32.43-28.38c-15.52-.01-28.29,12.73-28.33,28.26-.03,15.55,12.67,28.31,28.21,28.33,15.73.03,28.43-12.57,28.44-28.22,0-15.66-12.67-28.36-28.32-28.37Z"/>
    </g>
  </g>
</svg>