<?xml version="1.0" encoding="UTF-8"?>
<svg id="Layer_1" data-name="Layer 1" xmlns="http://www.w3.org/2000/svg" viewBox="0 0 230.91 230.91">
  <defs>
    <style>
      .cls-1 {
        fill: #ce2128;
      }

      .cls-2 {
        fill: #efbd89;
      }
    </style>
  </defs>
  <circle class="cls-1" cx="115.46" cy="115.46" r="115.46"/>
  <g id="_8f3jg0" data-name="8f3jg0">
    <g>
      <path class="cls-2" d="m73.5,112.99c0-19.93.04-39.86-.04-59.79-.01-3.1,1.31-5.15,3.76-6.69,3.94-2.47,8.37-3.59,12.85-4.45,12.93-2.49,25.97-2.9,39.09-1.79,7.31.62,14.58,1.54,21.49,4.14,2.12.8,4.12,2.04,6.01,3.34,1.61,1.11,2.2,2.87,2.2,4.88-.02,40.37-.03,80.74,0,121.11,0,3.06-1.6,4.97-4,6.37-1.05.61-1.45,1.27-1.44,2.51.06,6.16-1.17,7.93-6.99,10.16-5.42,2.07-11.11,3.03-16.84,3.31-7.65.38-15.33.52-22.99.34-6.82-.15-13.59-1.09-20.09-3.34-1.16-.4-2.3-.92-3.39-1.51-2.85-1.54-4.62-3.75-4.22-7.22.04-.33-.03-.68.01-1.01.2-1.58-.21-2.66-1.78-3.51-2.57-1.39-3.66-3.66-3.65-6.72.08-20.04.04-40.09.04-60.13Zm4.45-54.97v1.95c0,15.19.05,30.38-.05,45.57-.01,2.2.73,3.53,2.64,4.36.46.2.91.45,1.38.64,6.43,2.67,13.24,3.64,20.08,4.25,12.63,1.13,25.27,1.04,37.77-1.35,4.16-.8,8.19-2.35,12.22-3.7,1.76-.59,2.44-1.93,2.43-3.95-.09-15.25-.05-30.49-.05-45.74v-2.03c-12.38,5.23-25.23,6.05-38.17,6.06-12.94,0-25.81-.81-38.26-6.06Zm0,55.77v2.26c0,18.18,0,36.36,0,54.54,0,5.11.25,5.47,5.08,7.31.32.12.63.23.95.34,6.72,2.28,13.71,3.17,20.73,3.67,11.97.85,23.92.67,35.72-1.71,3.99-.8,7.84-2.32,11.71-3.66,1.61-.56,2.28-1.83,2.27-3.71-.07-19.03-.04-38.05-.04-57.08v-1.96c-12.47,5.32-25.35,6.08-38.27,6.07-12.92,0-25.79-.76-38.15-6.08Zm38.86-69.6c-9.68.06-18.64.48-27.38,2.63-3.51.86-6.89,2.33-10.2,3.81-1.6.72-1.59,1.74-.04,2.57,2.21,1.19,4.53,2.28,6.93,3,6.89,2.05,14,2.79,21.15,3.19,12.26.68,24.46.28,36.46-2.53,3.13-.73,6.17-2.05,9.1-3.44,1.97-.93,1.94-1.92.05-2.96-1.95-1.08-4.02-2.05-6.16-2.68-9.99-2.94-20.27-3.49-29.9-3.6Zm-33.41,138.86c-.3,3.26-.02,3.79,2.87,5.13.76.35,1.56.65,2.36.91,6.16,2.02,12.56,2.65,18.98,2.99,8.92.46,17.85.42,26.68-1.05,4.18-.7,8.31-1.92,12.34-3.29,2.59-.88,2.85-2.03,2.19-4.66-21.78,5.01-43.54,5.01-65.4-.03Z"/>
      <path class="cls-2" d="m32.6,117.78c.15-10.23,3.84-19.53,11.27-27.29,1.5-1.56,3.53-1.34,4.09.4.4,1.26-.29,2.13-1.11,2.98-3.7,3.83-6.47,8.26-7.98,13.37-3.92,13.22-1.35,25.03,7.91,35.32.15.17.32.32.47.49,1.05,1.2,1.13,2.61.1,3.44-1.16.94-2.36.77-3.3-.31-1.65-1.92-3.36-3.82-4.78-5.91-4.48-6.62-6.59-14-6.68-22.48Z"/>
      <path class="cls-2" d="m199.73,117.46c-.18,11.3-3.75,20.42-10.88,28.12-.27.29-.53.59-.83.84-1,.84-2.09.95-3.05.06-1.03-.95-.99-2.11-.12-3.17,1.25-1.53,2.65-2.94,3.79-4.54,9.82-13.66,8.52-32.59-3.05-44.79-.19-.2-.4-.4-.59-.61-.97-1.13-1.01-2.45-.11-3.33.91-.88,2.38-.93,3.29.23,2.33,2.95,4.78,5.87,6.69,9.09,3.29,5.53,4.86,12.48,4.85,18.1Z"/>
      <path class="cls-2" d="m53.91,97.15c.85.65,1.75.99,1.94,1.57.24.74.15,1.79-.23,2.48-.56,1.01-1.55,1.78-2.26,2.72-6.9,9.1-6.24,22.13,1.53,30.49.27.29.58.55.8.87.74,1.06.77,2.16-.2,3.05-.97.89-2.06.8-3.06-.03-.35-.29-.65-.63-.95-.96-9.83-10.9-9.87-27.14-.08-38.07.67-.75,1.55-1.32,2.5-2.11Z"/>
      <path class="cls-2" d="m188.24,118.24c-.18,7.59-2.75,14.15-7.94,19.65-.86.91-1.92,1.5-2.96.72-.63-.47-.98-1.52-1.12-2.37-.07-.45.52-1.08.92-1.52,8.83-9.71,8.83-23.28,0-32.94-1.25-1.37-1.36-2.76-.3-3.69,1-.88,2.35-.67,3.55.61,5.18,5.51,7.7,12.09,7.84,19.55Z"/>
      <path class="cls-2" d="m176.75,118.21c-.14,4.38-1.55,8.25-4.55,11.5-1.15,1.25-2.55,1.43-3.54.49-.95-.9-.88-2.2.17-3.45,4.57-5.42,4.58-11.65.04-16.98-1.12-1.32-1.17-2.68-.13-3.57,1.02-.87,2.37-.63,3.53.65,2.93,3.22,4.32,7.05,4.47,11.36Z"/>
      <path class="cls-2" d="m55.58,118.16c.16-4.32,1.56-8.14,4.5-11.35,1.17-1.27,2.53-1.48,3.54-.59,1.01.9.94,2.26-.2,3.58-4.47,5.19-4.47,11.66-.01,16.86,1.14,1.33,1.23,2.66.22,3.57-1,.91-2.38.7-3.54-.56-2.99-3.25-4.39-7.13-4.51-11.51Z"/>
      <path class="cls-2" d="m89.71,151.02c-.03-14.62,11.75-26.51,26.35-26.6,14.6-.09,26.56,11.89,26.55,26.57-.01,14.61-11.87,26.5-26.44,26.51-14.58,0-26.43-11.86-26.46-26.48Zm26.55-22.04c-12.06-.07-22.07,9.69-22.13,21.59-.07,12.44,9.72,22.42,22.01,22.44,11.98.02,22-9.85,22.05-21.73.05-12.37-9.64-22.23-21.93-22.3Z"/>
      <path class="cls-2" d="m148.41,132.59c1.22.02,2.29,1.1,2.26,2.28-.02,1.2-1.11,2.22-2.34,2.2-1.23-.02-2.29-1.09-2.27-2.28.03-1.19,1.13-2.23,2.35-2.21Z"/>
      <path class="cls-2" d="m148.35,164.93c-1.21-.01-2.29-1.09-2.28-2.28.01-1.21,1.06-2.19,2.33-2.18,1.26.01,2.3,1.03,2.28,2.23-.02,1.17-1.14,2.24-2.33,2.23Z"/>
      <path class="cls-2" d="m84.18,127.73c-1.34.02-2.26-.83-2.28-2.13-.02-1.3.88-2.24,2.18-2.26,1.3-.02,2.25.88,2.28,2.16.03,1.31-.85,2.21-2.18,2.23Z"/>
      <path class="cls-2" d="m148.39,123.34c1.23,0,2.3,1.05,2.29,2.23,0,1.21-1.04,2.17-2.32,2.17-1.26,0-2.31-1.01-2.3-2.2.01-1.17,1.11-2.21,2.33-2.2Z"/>
      <path class="cls-2" d="m86.36,144.17c-.03,1.27-1,2.2-2.28,2.17-1.28-.03-2.2-.98-2.17-2.28.02-1.3.94-2.16,2.28-2.13,1.33.03,2.21.93,2.17,2.24Z"/>
      <path class="cls-2" d="m148.41,174.14c-1.25.02-2.33-.97-2.35-2.15-.02-1.18,1.04-2.22,2.28-2.23,1.25-.01,2.32.97,2.34,2.16.02,1.19-1.01,2.21-2.27,2.22Z"/>
      <path class="cls-2" d="m90.7,128.38c-1.2-.02-2.29-1.12-2.26-2.28.03-1.23,1.05-2.16,2.35-2.14,1.28.02,2.3,1.03,2.27,2.23-.03,1.16-1.17,2.22-2.36,2.19Z"/>
      <path class="cls-2" d="m141.68,123.96c1.34-.03,2.27.82,2.3,2.12.03,1.29-.88,2.26-2.15,2.31-1.26.04-2.26-.9-2.3-2.16-.04-1.3.84-2.22,2.16-2.26Z"/>
      <path class="cls-2" d="m148.37,146.34c-1.21,0-2.31-1.06-2.3-2.23,0-1.2,1.04-2.18,2.32-2.17,1.29,0,2.3.97,2.3,2.18,0,1.17-1.1,2.22-2.31,2.22Z"/>
      <path class="cls-2" d="m86.36,153.44c-.02,1.29-.96,2.15-2.29,2.13-1.31-.03-2.2-.96-2.17-2.25.04-1.26,1.04-2.22,2.29-2.18,1.26.04,2.19,1.03,2.17,2.3Z"/>
      <path class="cls-2" d="m86.36,134.77c.03,1.25-.93,2.27-2.17,2.3-1.24.04-2.26-.94-2.29-2.18-.03-1.26.92-2.27,2.17-2.31,1.22-.04,2.26.95,2.29,2.19Z"/>
      <path class="cls-2" d="m148.39,155.57c-1.29,0-2.32-.96-2.32-2.17,0-1.17,1.09-2.25,2.29-2.25,1.19,0,2.31,1.06,2.32,2.23.01,1.22-1,2.19-2.29,2.2Z"/>
      <path class="cls-2" d="m86.36,171.99c-.02,1.29-.95,2.16-2.27,2.14-1.32-.02-2.21-.93-2.18-2.23.02-1.29.96-2.18,2.28-2.15,1.31.02,2.2.94,2.18,2.24Z"/>
      <path class="cls-2" d="m141.68,174.14c-1.32-.04-2.19-.95-2.15-2.27.04-1.29.98-2.16,2.3-2.12,1.31.04,2.19.97,2.15,2.27-.04,1.29-.97,2.15-2.3,2.11Z"/>
      <path class="cls-2" d="m86.36,162.69c0,1.23-1.02,2.25-2.24,2.24-1.23,0-2.21-1.01-2.22-2.26,0-1.27.95-2.21,2.24-2.21,1.28,0,2.23.95,2.22,2.22Z"/>
      <path class="cls-2" d="m90.74,169.75c1.23,0,2.32,1.02,2.32,2.19,0,1.17-1.07,2.19-2.31,2.19-1.25,0-2.32-1-2.32-2.18,0-1.18,1.07-2.2,2.31-2.2Z"/>
      <path class="cls-2" d="m132.5,49.43c.84,0,1.69-.03,2.53,0,1.27.05,2,.79,2.09,2,.1,1.32-.67,2.24-1.92,2.35-1.79.16-3.61.15-5.39,0-1.28-.1-2.02-1.05-1.92-2.34.09-1.19.81-1.96,2.08-2.01.84-.03,1.69,0,2.53,0Z"/>
      <path class="cls-2" d="m99.83,49.43c.84,0,1.69-.03,2.53,0,1.28.05,1.99.82,2.08,2.02.09,1.3-.65,2.24-1.93,2.34-1.79.14-3.61.15-5.4,0-1.25-.11-2.02-1.03-1.92-2.35.1-1.21.83-1.94,2.1-1.99.84-.03,1.69,0,2.53,0Z"/>
      <path class="cls-2" d="m124.29,144.65c0,1.69.03,3.38,0,5.07-.09,4.38-3.66,7.82-8.07,7.83-4.52.01-8.11-3.42-8.18-7.9-.05-3.38-.05-6.76,0-10.14.07-4.37,3.65-7.83,8.07-7.87,4.45-.04,8.09,3.47,8.18,7.93.03,1.69,0,3.38,0,5.07Zm-4.4.01c0-1.47,0-2.93,0-4.4,0-.11,0-.23,0-.34-.12-2.24-1.63-3.76-3.74-3.76-2.11,0-3.67,1.53-3.71,3.77-.05,3.1-.05,6.21,0,9.31.03,2.23,1.6,3.85,3.64,3.9,2.09.05,3.74-1.62,3.81-3.91.04-1.52,0-3.05,0-4.57Z"/>
      <path class="cls-2" d="m114.05,165.09c-.46-.27-.88-.66-1.37-.79-6.83-1.79-11.77-7.82-11.75-14.39,0-1.62.83-2.67,2.13-2.72,1.29-.05,2.14.9,2.29,2.57.53,5.84,4.46,9.9,10.11,10.45,4.77.46,9.61-2.92,11.02-7.75.28-.96.42-1.99.5-2.99.11-1.44.89-2.18,2.24-2.26,1.25-.08,2.14,1.02,2.18,2.49.19,6.53-4.86,12.8-11.7,14.6-.5.13-.92.59-1.49.97.41.36.45.42.49.43,2.42.49,3.15,1.14,2.97,2.65-.17,1.45-1.14,2-3.54,2-1.52,0-3.05.02-4.57,0-1.86-.02-2.84-.75-2.92-2.12-.09-1.37.7-2.11,2.62-2.44.16-.03.31-.09.47-.13.11-.18.22-.37.33-.55Z"/>
    </g>
  </g>
</svg>