<?xml version="1.0" encoding="UTF-8"?>
<svg id="Layer_1" data-name="Layer 1" xmlns="http://www.w3.org/2000/svg" viewBox="0 0 230.91 230.91">
  <defs>
    <style>
      .cls-1 {
        fill: #ce2128;
      }

      .cls-2 {
        fill: #efbd89;
      }
    </style>
  </defs>
  <circle class="cls-2" cx="115.46" cy="115.46" r="115.46"/>
  <g id="aJWNon">
    <g>
      <path class="cls-1" d="m36.42,87.1c.79-3.19,1.62-6.37,2.37-9.58,1.81-7.84,3.58-15.68,5.38-23.52.39-1.7,1.05-2.24,2.78-2.24,6.78,0,13.56,0,20.34,0,1.78,0,2.47.48,2.85,2.16,2.57,11.21,5.13,22.42,7.67,33.63.38,1.69-.57,2.86-2.39,2.92-1.87.06-3.74.01-5.76.01,0,.71,0,1.24,0,1.77,0,7.47,0,14.95,0,22.42,0,.54,0,1.1-.14,1.61-.32,1.13-1.14,1.75-2.32,1.66-1.1-.09-1.82-.75-2-1.86-.09-.53-.09-1.08-.09-1.63,0-7.32,0-14.65,0-21.97,0-.59,0-1.17,0-1.87h-5.54v76.9c1.23.12,2.5.17,3.75.37,4.7.77,8.11,4.74,8.2,9.49.04,2.04-.75,2.89-2.83,2.9-5.05.02-10.1,0-15.14,0-2.57,0-5.15.01-7.72,0-2.37-.02-3.31-1.13-3-3.49.72-5.49,4.73-9.06,10.27-9.14.54,0,1.07,0,1.7,0v-77.15c-.74,0-1.46,0-2.19,0-4.26,0-8.51-.04-12.77.02-1.36.02-2.51-.27-3.4-1.33,0-.69,0-1.39,0-2.08Zm36.37-1.23c-2.27-9.93-4.51-19.76-6.76-29.6h-17.75c-2.25,9.85-4.5,19.69-6.77,29.6h31.29Zm-6.16,89.73c-1.04-1.98-2.38-3.2-4.35-3.27-3.41-.12-6.82-.12-10.23,0-2.02.07-3.41,1.29-4.31,3.27h18.89Z"/>
      <path class="cls-1" d="m100.98,47.23c1.46,1.45,2.57,2.61,3.77,3.69.28.25.82.29,1.24.29,16.68.01,33.36.02,50.04-.02.6,0,1.3-.35,1.79-.74,1.07-.86,2.03-1.85,3.04-2.78-.06-.15-.12-.29-.18-.44-1.94,0-3.88,0-5.83,0-2.44,0-3.45-.66-3.48-2.26-.03-1.66,1-2.35,3.54-2.35,3.56,0,7.13,0,10.69,0,2.45,0,3.24.78,3.24,3.17,0,16.93,0,33.85,0,50.78,0,2.27-.75,3.03-3.02,3.03-23.21,0-46.43,0-69.64,0-2.18,0-2.95-.77-2.95-2.95,0-16.98,0-33.95,0-50.93,0-2.3.82-3.1,3.17-3.1,15.79,0,31.58,0,47.37,0,.3,0,.6-.01.89.03,1.38.18,2.26,1.09,2.24,2.31-.02,1.22-.92,2.1-2.32,2.24-.49.05-.99.02-1.48.02-13.36,0-26.73,0-40.09,0h-2.01Zm27.73,31.79c.47-.5.87-.92,1.26-1.36,3.48-3.86,6.92-7.74,10.44-11.56,2.69-2.91,6.7-2.89,9.43-.05.82.86,1.61,1.75,2.41,2.62,1.05,1.14,2.1,2.27,3.36,3.65v-16.39h-49.08v22.06c2.02-2.24,3.84-4.24,5.65-6.25,3.19-3.53,6.71-3.57,9.89-.08,2.2,2.4,4.36,4.84,6.63,7.36Zm26.97,7.51c0-2.42.04-4.73-.04-7.04-.01-.41-.45-.85-.77-1.21-2.61-2.9-5.25-5.79-7.88-8.68-1.43-1.57-2.31-1.55-3.76.06-3.27,3.64-6.55,7.27-9.83,10.92-.55.61-1.07,1.24-1.45,1.68,1.77,3.72,4.65,4.86,8.43,4.3,1.4-.21,2.86-.03,4.3-.03h10.99Zm5.01,8.55c.06-.1.12-.21.19-.31-1.04-.99-2.03-2.04-3.14-2.94-.52-.42-1.28-.77-1.93-.77-16.53-.04-33.06-.03-49.59-.02-.43,0-.99-.03-1.27.21-1.32,1.13-2.56,2.35-3.83,3.54.09.1.17.19.26.29h59.31Zm-31.35-8.6c-3.86-4.28-7.48-8.33-11.15-12.32-.82-.89-1.68-.51-2.41.3-2.9,3.24-5.84,6.45-8.69,9.74-.47.54-.57,1.39-.91,2.28h23.16Zm-31.45,4.96c.11.06.23.11.34.17.95-1,1.97-1.95,2.84-3.02.39-.48.72-1.19.72-1.8.04-10.43.03-20.87.02-31.31,0-.43,0-.98-.25-1.26-1.1-1.22-2.3-2.36-3.67-3.74v40.94Zm66.24.45v-41.52c-1.32,1.39-2.37,2.43-3.32,3.55-.32.37-.54.95-.54,1.43-.03,10.53-.03,21.06,0,31.59,0,.48.21,1.07.53,1.43.97,1.12,2.03,2.16,3.34,3.52Z"/>
      <path class="cls-1" d="m166.57,175.69v-16.6h-71.02v16.6h1.86c15.29,0,30.59,0,45.88,0,.68,0,1.54-.11,2.01.24.67.49,1.47,1.37,1.47,2.07,0,.7-.86,1.5-1.5,2.06-.34.29-1.04.22-1.58.22-22.32,0-44.65,0-66.97,0-2.44,0-3.16-.74-3.17-3.2,0-10,0-20,0-30,0-5.87,2.52-9.46,8.02-11.44.18-.07.36-.15.61-.27,0-2.51,0-5.04,0-7.56.04-8.26,5.94-14.22,14.18-14.3,2.47-.03,4.95-.02,7.42,0,1.6.02,2.57.91,2.55,2.26-.02,1.34-1.01,2.16-2.62,2.2-3.16.08-6.35-.1-9.47.3-4.03.52-7.08,3.94-7.38,7.97-.21,2.81-.14,5.64-.11,8.46,0,.34.44.85.79.99,5.52,2.24,7.88,5.67,7.89,11.58,0,2.32,0,4.64,0,7.08h71.2c0-2.18-.04-4.34.01-6.49.04-1.43.03-2.9.37-4.27.96-3.89,3.43-6.5,7.23-7.78.84-.28,1.16-.65,1.13-1.55-.07-2.18,0-4.36-.03-6.53-.1-5.82-4.06-9.75-9.87-9.76-9.45-.02-18.91,0-28.36,0-7.72,0-15.44,0-23.16,0-.45,0-.9.05-1.33-.04-1.17-.24-1.83-1.06-1.82-2.21.01-1.14.66-1.95,1.85-2.17.29-.05.59-.04.89-.04,17.62,0,35.24-.02,52.86.03,6.28.02,11.92,4.75,13.12,10.86.22,1.11.3,2.25.32,3.39.05,2.52.01,5.04.01,7.46,1.34.65,2.67,1.12,3.79,1.88,3.15,2.14,4.82,5.17,4.83,9.02.02,10.39,0,20.79,0,31.18,0,2.14-.78,2.93-2.96,2.93-10.39.01-20.79,0-31.18,0-.15,0-.3,0-.45,0-1.62-.1-2.54-.94-2.53-2.32,0-1.37.92-2.25,2.56-2.27,3.56-.04,7.13-.01,10.69-.02.59,0,1.18,0,1.94,0Zm17.35-.07c.05-.29.11-.43.11-.57,0-9.6.02-19.2-.03-28.81,0-.96-.29-1.97-.69-2.85-1.25-2.74-4.33-4.12-7.33-3.41-2.76.65-4.75,3.2-4.76,6.23-.02,9.4-.01,18.81,0,28.21,0,.38.06.76.1,1.2h12.6Zm-93.12,0c0-10.21.07-20.25-.05-30.29-.03-2.4-1.62-4.1-3.84-5.04-4.36-1.84-8.86,1.39-8.88,6.4-.03,9.25-.01,18.51,0,27.76,0,.38.07.76.11,1.17h12.66Z"/>
      <path class="cls-1" d="m128.68,70.78c-3.5,0-6.35-2.86-6.31-6.32.03-3.47,2.9-6.29,6.38-6.27,3.5.02,6.28,2.83,6.27,6.34-.01,3.51-2.8,6.26-6.34,6.25Zm-1.73-6.47c0,1.23.6,1.91,1.67,1.98,1.1.07,1.81-.63,1.87-1.69.06-1.06-.55-1.8-1.68-1.85-1.13-.06-1.72.57-1.86,1.57Z"/>
    </g>
  </g>
</svg>