<?xml version="1.0" encoding="UTF-8"?>
<svg id="Layer_1" data-name="Layer 1" xmlns="http://www.w3.org/2000/svg" viewBox="0 0 230.91 230.91">
  <defs>
    <style>
      .cls-1 {
        fill: #ce2128;
      }

      .cls-2 {
        fill: #efbd89;
      }
    </style>
  </defs>
  <circle class="cls-1" cx="115.46" cy="115.46" r="115.46"/>
  <g id="rv7mTI">
    <g>
      <path class="cls-2" d="m117.09,45.71c3.16,1.01,5.44,3.35,7.96,5.31,6.3,4.9,12.56,9.86,18.84,14.79.25.2.51.38.74.6.88.84,1.01,1.92.34,2.81-.68.91-1.88,1.12-2.91.4-1-.7-1.94-1.5-2.9-2.25-6.88-5.41-13.76-10.83-20.65-16.24-2.25-1.76-3.89-1.76-6.12,0-20.23,15.9-40.45,31.8-60.67,47.69-.14.11-.28.23-.53.44,1.64,2.1,3.28,4.19,4.99,6.37,3.39-2.66,6.74-5.28,10.08-7.91,15.77-12.39,31.54-24.79,47.3-37.18,1.63-1.28,2.16-1.28,3.82.03,18.69,14.69,37.38,29.38,56.08,44.07.39.31.8.6,1.27.96,1.66-2.11,3.31-4.21,5-6.36-6.13-4.82-12.19-9.58-18.25-14.35-3.92-3.08-7.85-6.17-11.78-9.25-.04-.03-.07-.06-.11-.09-1.41-1.13-1.71-2.3-.85-3.34.83-1.02,1.98-1.01,3.36.06,1.61,1.25,3.21,2.52,4.82,3.78,8.81,6.93,17.62,13.85,26.42,20.78,1.67,1.31,1.77,2.23.48,3.89-2.26,2.9-4.54,5.78-6.82,8.67-1.15,1.45-2.14,1.57-3.59.46-1-.77-1.99-1.55-3.18-2.48v73.71c2.76,0,5.52-.02,8.27,0,1.76.02,2.83,1.51,2.01,2.89-.3.51-.98.86-1.55,1.14-.33.16-.8.04-1.21.04-41.63,0-83.25,0-124.88,0-.27,0-.54,0-.82,0-1.38-.04-2.23-.81-2.24-2.01-.01-1.22.83-2.04,2.2-2.05,2.41-.02,4.81,0,7.22,0,.35,0,.71,0,1.22,0,0-.64,0-1.17,0-1.7,0-10.89,0-21.79,0-32.68,0-.45-.05-.92.03-1.36.21-1.13.95-1.81,2.08-1.77,1.11.04,1.86.68,1.97,1.87.04.5.03,1,.03,1.5,0,10.8,0,21.61,0,32.41,0,.53,0,1.06,0,1.66h101.34c0-.49,0-.96,0-1.44,0-24.78,0-49.57.01-74.35,0-.81-.14-1.41-.86-1.97-16.25-12.73-32.48-25.49-48.69-38.27-.73-.58-1.18-.48-1.85.05-16.36,12.89-32.74,25.75-49.08,38.65-.47.37-.83,1.18-.83,1.79-.05,10.03-.04,20.06-.04,30.1,0,2.21-.63,3.22-2.02,3.24-1.4.02-2.09-1.03-2.09-3.18,0-8.76,0-17.52,0-26.28,0-.49,0-.98,0-1.75-1.14.88-2.08,1.62-3.04,2.33-1.34,1-2.38.89-3.41-.4-2.37-2.99-4.72-5.98-7.06-8.99-1.09-1.4-.98-2.43.38-3.5,21.01-16.52,42.01-33.05,63.05-49.53,1-.79,2.29-1.2,3.45-1.79,1.09,0,2.18,0,3.27,0Z"/>
      <path class="cls-2" d="m97.64,108.49c2.13,2.11,4.24,4.11,6.22,6.23.51.55.92,1.55.82,2.26-.24,1.62-2.23,2.05-3.52.81-1.8-1.72-3.55-3.51-5.3-5.29-.34-.35-.57-.82-.87-1.28-1.42,1.51-2.56,2.72-3.55,3.77,8.01,8.02,16.17,16.18,24.34,24.34.97-.97,2.17-2.17,3.45-3.45-2.54-2.53-5.07-5.06-7.6-7.59-1.16-1.15-2.31-2.31-3.47-3.47-1.32-1.32-1.51-2.59-.54-3.52.99-.96,2.08-.79,3.42.54,1.31,1.32,2.61,2.65,3.99,4.05,2.64-2.63,5.21-5.18,7.73-7.78.23-.23.16-.81.14-1.22-.15-2.29-.61-4.61-.43-6.88.4-4.89,3.48-8.24,7.2-11.04,4.48-3.36,9.42-4.99,15.05-3.67,2.06.48,2.6,2.25,1.13,3.76-1.81,1.85-3.61,3.71-5.5,5.48-1.58,1.48-1.65,3.56-2.36,5.39-.07.19.18.57.37.79,2.17,2.52,2.21,2.59,5.3,1.44,1.14-.42,2.24-1.14,3.15-1.95,1.76-1.57,3.31-3.37,5.06-4.94.56-.5,1.63-.95,2.23-.75.68.24,1.39,1.16,1.58,1.92.79,3.1.57,6.22-.54,9.23-1.55,4.19-4.14,7.65-7.7,10.33-3.96,2.99-8.45,3.24-13.09,2.13-.88-.21-1.42-.06-2.03.57-1.23,1.27-2.53,2.47-3.87,3.76.41.44.7.78,1.02,1.09,7.6,7.61,15.08,15.35,22.85,22.79,5.06,4.84,5.28,11.96-.08,16.83-3.83,3.49-8.34,4.58-12.56,2.4-1.26-.65-2.42-1.62-3.43-2.63-7.73-7.68-15.41-15.4-23.11-23.1-.28-.28-.58-.55-1.09-1.03-1.43,1.5-2.86,2.94-4.19,4.47-.25.29-.19.91-.16,1.37.13,2.29.56,4.61.35,6.87-.17,1.78-.77,3.72-1.76,5.2-3.73,5.56-8.79,9.24-15.68,9.78-1.56.12-3.18-.07-4.71-.4-.71-.15-1.57-.87-1.8-1.53-.2-.58.18-1.62.65-2.13,1.77-1.94,3.65-3.79,5.56-5.61,1.52-1.45,1.61-3.48,2.26-5.28.1-.28-.44-.79-.71-1.19-1.24-1.87-2.75-2.16-4.82-1.2-1.3.6-2.49,1.17-3.47,2.23-1.55,1.65-3.14,3.28-4.83,4.79-.56.5-1.5.83-2.25.8-1.01-.04-1.4-.94-1.62-1.91-1.3-5.76.51-10.7,3.93-15.26,4.5-5.99,10.31-8.32,17.68-6.48.41.1,1.06.05,1.32-.2,2.57-2.49,5.09-5.04,7.59-7.53-5.81-5.81-11.55-11.55-17.38-17.37-.23.2-.53.45-.81.71-1.46,1.37-2.75,1.23-3.79-.47-1.65-2.71-3.27-5.44-4.9-8.16-1.21-2.02-2.39-4.06-3.64-6.06-.75-1.2-.59-2.19.4-3.16,1.75-1.71,3.47-3.46,5.21-5.19,1.35-1.34,1.96-1.42,3.57-.46,4.55,2.72,9.1,5.45,13.64,8.18,2.26,1.36,2.39,2.35.58,4.24-.16.16-.3.33-.6.66Zm10.66,29.97c-2.55,2.56-5.11,4.94-7.44,7.54-1.5,1.67-2.98,2.07-5.15,1.47-3.59-1-7.2-1.07-10.35,1.45-2.52,2.02-4.48,4.5-5.75,7.47-.49,1.16-.73,2.42-1.09,3.63.19.12.38.24.57.36.41-.54.75-1.15,1.24-1.59,1.09-.99,2.14-2.15,3.43-2.79,1.77-.87,3.76-1.29,5.63-1.96.97-.35,1.79-.18,2.5.52,1.52,1.5,3.03,3,4.52,4.52.69.7.9,1.51.54,2.49-.6,1.66-1.05,3.37-1.7,5.01-.38.93-.94,1.84-1.59,2.61-.9,1.05-1.97,1.96-2.97,2.93.09.16.18.32.27.49,1.7-.64,3.54-1.04,5.08-1.96,8.04-4.79,9.02-8.92,7.51-15.23-.54-2.26-.22-3.81,1.55-5.38,2.6-2.31,4.97-4.88,7.37-7.26-1.43-1.48-2.74-2.84-4.17-4.33Zm31.54-39.42c-2.59.25-4.69,1.15-6.6,2.48-3.38,2.34-6.51,4.97-6.72,9.49-.09,1.82.19,3.71.63,5.49.45,1.83.17,3.15-1.26,4.47-2.69,2.48-5.21,5.14-7.67,7.59,1.43,1.49,2.76,2.87,4.14,4.3,2.76-2.76,5.57-5.52,8.32-8.34.87-.89,1.81-1.12,2.95-.83.48.12.96.27,1.44.37,3.76.77,7.4.87,10.54-1.86,2.18-1.9,4-4.1,5.17-6.75.58-1.31.89-2.74,1.32-4.11-.15-.12-.3-.24-.45-.36-2.31,3.82-6.07,5.19-9.99,6.26-.13.04-.27.06-.39.11-1.06.47-1.93.16-2.71-.62-1.44-1.45-2.89-2.89-4.33-4.33-.74-.74-.89-1.56-.59-2.61,1.1-3.92,2.4-7.7,5.89-10.23.1-.07.14-.21.33-.53Zm-10.22,61.39c3.53,3.55,6.99,7.13,10.59,10.57.76.73,1.95,1.15,3.02,1.38,2.86.63,4.9-.86,6.77-2.84,2.84-3.01,2.88-6.7-.04-9.65-3.06-3.09-6.14-6.16-9.22-9.23-.25-.25-.53-.46-.72-.63-3.48,3.48-6.9,6.9-10.39,10.38Zm1.18-19.43c-1.77-1.78-3.51-3.55-5.16-5.21-3.41,3.4-6.86,6.85-10.17,10.15,1.68,1.69,3.45,3.47,5.17,5.2,3.34-3.34,6.77-6.76,10.16-10.14Zm-36.9-34.85c-2.59-1.56-5.14-3.09-7.7-4.62-3.67-2.21-3.65-2.19-6.58.98-.53.58-.42.97-.08,1.52,1.39,2.28,2.75,4.57,4.12,6.85.69,1.15,1.4,2.3,2.08,3.42,2.74-2.74,5.39-5.39,8.15-8.15Zm29.83,48.26c.91.82,1.94,1.75,2.8,2.52,3.28-3.27,6.75-6.74,10.05-10.04-.82-.85-1.75-1.82-2.62-2.72-3.34,3.34-6.73,6.73-10.23,10.24Z"/>
    </g>
  </g>
</svg>