<?xml version="1.0" encoding="UTF-8"?>
<svg id="Layer_1" data-name="Layer 1" xmlns="http://www.w3.org/2000/svg" viewBox="0 0 230.91 230.91">
  <defs>
    <style>
      .cls-1 {
        fill: #ce2128;
      }

      .cls-2 {
        fill: #efbd89;
      }
    </style>
  </defs>
  <circle class="cls-2" cx="115.46" cy="115.46" r="115.46"/>
  <g id="vMgiAm">
    <g>
      <path class="cls-1" d="m120.56,90.28c5.11-5.32,10.19-10.61,15.41-16.05-.77-.73-1.53-1.38-2.2-2.1-2.04-2.19-2.71-4.75-1.68-7.58,1.04-2.86,3.17-4.46,6.21-4.84,6.5-.81,13-1.64,19.51-2.47,4-.51,8.01,2.73,7.97,6.75-.03,2.94-.51,5.87-.85,8.8-.45,3.88-1,7.75-1.46,11.63-.36,3.12-1.83,5.44-4.81,6.55-3.03,1.13-5.71.35-7.99-1.91-.34-.34-.68-.67-1.02-1.01-.06-.06-.15-.08-.54-.44-.35.49-.63,1.05-1.05,1.47-6.7,6.83-13.41,13.64-20.12,20.46-3.54,3.6-7.28,3.8-11.19.62-4.49-3.64-9-7.25-13.5-10.88-.2-.16-.41-.3-.71-.52-2.06,2.29-4.09,4.54-6.11,6.8-4.78,5.34-9.56,10.69-14.35,16.04-3.45,3.85-7.15,4.22-11.24,1.13-.9-.68-1.82-1.34-2.71-2.04-3.33-2.62-3.88-7.31-1.12-10.54,9.01-10.54,18.04-21.06,27.11-31.55,2.93-3.39,7-3.73,10.55-.94,4.92,3.87,9.8,7.78,14.7,11.68.37.3.75.58,1.19.93Zm37.09-26.67c-5.93.75-12.26,1.54-18.58,2.36-1.22.16-1.5,1-.64,1.91,1.13,1.2,2.33,2.35,3.49,3.52,2.09,2.1,2.11,3.54.05,5.69-5.72,5.96-11.44,11.92-17.17,17.87-2.48,2.58-5.14,2.71-7.96.46-5.23-4.18-10.47-8.34-15.71-12.51-1.34-1.06-1.53-1.03-2.64.26-4.08,4.75-8.16,9.49-12.24,14.24-4.7,5.47-9.39,10.96-14.11,16.42-.72.84-.77,1.49.19,2.15.78.54,1.53,1.14,2.3,1.72,1.41,1.06,1.56,1.04,2.76-.31,6.93-7.74,13.85-15.49,20.79-23.22,2.37-2.64,5.15-2.87,7.94-.65,4.82,3.85,9.62,7.73,14.42,11.6,1.54,1.24,1.68,1.24,3.1-.19,3.11-3.16,6.22-6.32,9.33-9.48,4.58-4.65,9.15-9.3,13.74-13.93,1.79-1.81,3.45-1.83,5.2-.12,1.06,1.03,2.06,2.12,3.16,3.11.34.31.98.6,1.34.48.36-.12.71-.74.77-1.19.81-6.2,1.58-12.4,2.35-18.6.16-1.32-.16-1.67-1.88-1.59Z"/>
      <path class="cls-1" d="m166.08,143.24c0,8.17,0,16.35,0,24.52,0,2.5-1.15,3.66-3.66,3.66-6.61,0-13.21,0-19.82,0-2.49,0-3.65-1.17-3.65-3.67,0-16.35,0-32.69,0-49.04,0-2.5,1.16-3.65,3.66-3.65,6.61,0,13.21,0,19.82,0,2.5,0,3.64,1.15,3.65,3.67,0,8.17,0,16.35,0,24.52Zm-6.31-21.84h-14.46v43.69h14.46v-43.69Z"/>
      <path class="cls-1" d="m101.38,151.59c0-5.43,0-10.87,0-16.3,0-2.33,1.2-3.53,3.52-3.53,6.69,0,13.38,0,20.08,0,2.33,0,3.53,1.19,3.53,3.52,0,10.87,0,21.73,0,32.6,0,2.33-1.19,3.53-3.52,3.53-6.69,0-13.38,0-20.08,0-2.32,0-3.53-1.21-3.53-3.52,0-5.43,0-10.87,0-16.3Zm20.81-13.51h-14.48v26.98h14.48v-26.98Z"/>
      <path class="cls-1" d="m90.93,157.84c0,3.35,0,6.69,0,10.04,0,2.33-1.2,3.52-3.52,3.53-6.69,0-13.38,0-20.07,0-2.32,0-3.52-1.21-3.53-3.53,0-6.69,0-13.38,0-20.08,0-2.33,1.2-3.52,3.52-3.52,6.69,0,13.38,0,20.07,0,2.33,0,3.52,1.2,3.52,3.52,0,3.35,0,6.69,0,10.04Zm-6.31-7.22h-14.46v14.46h14.46v-14.46Z"/>
      <path class="cls-1" d="m148.43,110.87c-1.43,0-2.86.03-4.29,0-1.81-.04-3.11-1.4-3.09-3.16.02-1.7,1.3-3.04,3.05-3.07,2.82-.04,5.64-.04,8.46,0,1.81.02,3.11,1.4,3.09,3.16-.02,1.7-1.3,3-3.05,3.08-.09,0-.17,0-.26,0-1.3,0-2.6,0-3.9,0Z"/>
      <path class="cls-1" d="m110.74,127.57c-1.39,0-2.78.03-4.16,0-1.81-.04-3.12-1.39-3.11-3.15.01-1.75,1.33-3.07,3.16-3.09,2.78-.03,5.55-.03,8.33,0,1.81.02,3.12,1.38,3.11,3.14-.01,1.75-1.33,3.04-3.16,3.1-.04,0-.09,0-.13,0-1.34,0-2.69,0-4.03,0Z"/>
      <path class="cls-1" d="m73.16,140.09c-1.34,0-2.69.02-4.03,0-1.91-.03-3.25-1.34-3.23-3.16.01-1.75,1.33-3.07,3.17-3.09,2.78-.03,5.55-.03,8.33,0,1.81.02,3.12,1.39,3.1,3.15-.01,1.75-1.33,3.06-3.16,3.09-1.39.03-2.78,0-4.16,0Z"/>
      <path class="cls-1" d="m163.99,107.67c.03,1.75-1.32,3.16-3.06,3.19-1.75.03-3.16-1.32-3.19-3.06-.03-1.76,1.32-3.16,3.06-3.19,1.76-.03,3.16,1.32,3.19,3.06Z"/>
      <path class="cls-1" d="m126.41,124.41c.01,1.75-1.35,3.14-3.09,3.15-1.75.01-3.14-1.35-3.15-3.1-.01-1.75,1.35-3.14,3.1-3.15,1.75-.01,3.14,1.35,3.15,3.1Z"/>
      <path class="cls-1" d="m85.76,140.09c-1.75.02-3.14-1.35-3.16-3.09-.02-1.75,1.34-3.14,3.09-3.16,1.75-.02,3.14,1.34,3.16,3.09.02,1.75-1.34,3.14-3.09,3.16Z"/>
    </g>
  </g>
  <path class="cls-1" d="m117.37,206.25c-49.08,0-89-39.93-89-89S68.3,28.24,117.37,28.24s89,39.93,89,89-39.93,89-89,89Zm0-169.87c-44.59,0-80.87,36.28-80.87,80.87s36.28,80.87,80.87,80.87,80.87-36.28,80.87-80.87-36.28-80.87-80.87-80.87Z"/>
  <rect class="cls-1" x="111.98" y="31.49" width="8.13" height="173.4" transform="translate(-37.35 180.68) rotate(-67.69)"/>
</svg>