<?xml version="1.0" encoding="UTF-8"?>
<svg id="Layer_1" data-name="Layer 1" xmlns="http://www.w3.org/2000/svg" viewBox="0 0 230.91 230.91">
  <defs>
    <style>
      .cls-1 {
        fill: #ce2128;
      }

      .cls-2 {
        fill: #efbd89;
      }
    </style>
  </defs>
  <circle class="cls-2" cx="115.46" cy="115.46" r="115.46"/>
  <g id="ZuRGiX">
    <g>
      <path class="cls-1" d="m157.08,187.84c0,1.64.01,3.09,0,4.54-.02,2.21-.93,3.12-3.14,3.12-15.33,0-30.66,0-46,0-10.22,0-20.44,0-30.66,0-2.64,0-3.43-.8-3.44-3.47,0-.81-.03-1.62,0-2.42.06-1.05-.05-1.83-1.19-2.47-.63-.35-1.03-1.61-1.04-2.47-.09-5.38-.05-10.76-.05-16.14,0-24.21.01-48.42-.02-72.63,0-1.78.28-3.23,2.19-3.7.22-1.41.35-2.57-1.24-3.29-.51-.23-.88-1.36-.88-2.07-.05-16.19-.04-32.39-.03-48.58,0-1.92.95-2.84,2.9-2.84,27.33,0,54.66,0,81.99,0,1.94,0,2.89.93,2.89,2.86.01,16.14.02,32.28-.03,48.42,0,.77-.36,1.97-.9,2.22-1.51.7-1.43,1.79-1.26,3.2,2.01.6,2.23,2.21,2.23,4.14-.04,29.32-.04,58.64,0,87.96,0,1.78-.45,3.05-2.29,3.63Zm-2.96-90.35h-77.28v85.02h77.28v-85.02Zm-.04-13.09v-43.71h-77.28v43.71h77.28Zm-75.03,7.69h72.76v-2.33h-72.76v2.33Zm0,98.13h72.76v-2.33h-72.76v2.33Z"/>
      <path class="cls-1" d="m129.69,174.85c2.91,0,5.81-.02,8.72,0,1.78.01,2.86,1,2.86,2.56,0,1.56-1.07,2.57-2.85,2.58-5.86.02-11.73.02-17.59,0-1.75,0-2.82-1.07-2.78-2.64.04-1.5,1.08-2.48,2.76-2.49,2.96-.03,5.92,0,8.88,0Z"/>
      <path class="cls-1" d="m81.89,138.64c0-2.47-.02-4.95,0-7.42.02-1.78,1.01-2.85,2.58-2.84,1.56,0,2.55,1.08,2.56,2.87.02,4.95.02,9.9,0,14.85,0,1.81-.95,2.89-2.5,2.93-1.63.04-2.63-1.06-2.64-2.95-.02-2.47,0-4.95,0-7.42Z"/>
      <path class="cls-1" d="m147.8,174.86c.48,0,.97-.04,1.45,0,1.4.13,2.36,1.21,2.34,2.59-.01,1.38-.98,2.43-2.4,2.53-.91.06-1.83.05-2.74,0-1.54-.07-2.56-1.08-2.58-2.52-.03-1.51,1.01-2.55,2.64-2.62.43-.02.86,0,1.29,0h0Z"/>
      <path class="cls-1" d="m81.89,63.68c0-2.42-.01-4.84,0-7.26.01-1.82.95-2.89,2.5-2.92,1.63-.04,2.64,1.05,2.64,2.94.01,4.95.02,9.9,0,14.85,0,1.77-1.02,2.85-2.58,2.85-1.56,0-2.54-1.08-2.56-2.87-.02-2.53,0-5.06,0-7.59Z"/>
    </g>
  </g>
</svg>