<?xml version="1.0" encoding="UTF-8"?>
<svg id="Layer_1" data-name="Layer 1" xmlns="http://www.w3.org/2000/svg" viewBox="0 0 230.91 230.91">
  <defs>
    <style>
      .cls-1 {
        fill: #ce2128;
      }

      .cls-2 {
        fill: #f6dcc4;
      }
    </style>
  </defs>
  <circle class="cls-1" cx="115.46" cy="115.46" r="115.46"/>
  <g>
    <path class="cls-2" d="m115.45,204.46c-49.08,0-89-39.93-89-89S66.38,26.45,115.45,26.45s89,39.93,89,89-39.93,89-89,89Zm0-169.87c-44.59,0-80.87,36.28-80.87,80.87s36.28,80.87,80.87,80.87,80.87-36.28,80.87-80.87-36.28-80.87-80.87-80.87Z"/>
    <rect class="cls-2" x="110.06" y="29.7" width="8.13" height="173.4" transform="translate(-36.88 177.79) rotate(-67.69)"/>
  </g>
  <path class="cls-2" d="m86.1,68.14h67.92v.14c-4,6.17-6.26,9.46-6.78,9.88h-18.14c2.49,2.92,4.19,6.47,5.08,10.66h19.34c.24.05.35.14.35.28-4.33,6.5-6.54,9.74-6.64,9.74h-12.57c-.28,3.34-1.88,7.37-4.8,12.07-3.86,4.75-7.55,7.84-11.08,9.25-6.59,3.15-12.9,4.73-18.92,4.73v.14c0,.47,1.48,2.42,4.45,5.86l33.54,40.46v1.91c0,.19-.12.28-.35.28h-14.76c-26.55-30.92-39.82-46.46-39.82-46.6v-9.39l.14-.35c2.35.33,5.11.49,8.26.49,14.87,0,24.12-4.82,27.75-14.47.56-1.41.85-2.87.85-4.38h-40.39c-.19,0-.28-.09-.28-.28,4.47-6.5,6.75-9.74,6.85-9.74h32.05v-.14c-1.84-3.72-5.39-6.61-10.66-8.68-3.77-1.22-7.15-1.84-10.17-1.84h-17.93v-.35c4.33-6.45,6.57-9.67,6.71-9.67Z"/>
</svg>