<?xml version="1.0" encoding="UTF-8"?>
<svg id="Layer_1" data-name="Layer 1" xmlns="http://www.w3.org/2000/svg" viewBox="0 0 230.91 230.91">
  <defs>
    <style>
      .cls-1 {
        fill: #ce2128;
      }

      .cls-2 {
        fill: #efbd89;
      }
    </style>
  </defs>
  <circle class="cls-1" cx="115.46" cy="115.46" r="115.46"/>
  <g id="INdd8Q">
    <g>
      <path class="cls-2" d="m192.86,157.86c-.77,1.16-1.85,1.5-3.22,1.49-7-.05-14-.02-21.24-.02.34.45.53.77.78,1.03,3.03,3.31,6.08,6.59,9.1,9.91,1.67,1.84,2.07,4,1.29,6.32-.8,2.36-2.56,3.69-4.98,4.1-2.02.35-3.75-.38-5.27-1.69-7.09-6.12-14.21-12.22-21.27-18.37-1.04-.91-2.06-1.34-3.49-1.34-13.6.06-27.21.04-40.81.03-.5,0-1.03.05-1.5-.07-1.21-.31-1.94-1.09-1.86-2.39.08-1.21.79-1.94,1.99-2.09.65-.08,1.31-.06,1.96-.06,27.31,0,54.62,0,81.92,0,.64,0,1.29,0,2,0v-6.58c-.6-.03-1.13-.07-1.67-.07-4.43,0-8.87,0-13.3,0-.35,0-.71,0-1.06,0-1.9-.04-2.92-.85-2.92-2.31,0-1.47,1.04-2.32,2.91-2.33,4.79-.01,9.57,0,14.36,0,.54,0,1.08,0,1.68,0v-75.22c-.68,0-1.35,0-2.03,0-37.54,0-75.07,0-112.61,0-.6,0-1.21.02-1.81-.06-1.28-.16-1.99-.91-2.02-2.21-.03-1.33.75-2.03,1.96-2.3.43-.1.9-.05,1.36-.05,38.79,0,77.59,0,116.38-.02,1.41,0,2.58.25,3.38,1.49v92.82Zm-38.99,1.47c.16.3.18.41.24.46,6.09,5.27,12.19,10.55,18.29,15.81.77.67,1.68.79,2.45.03.85-.86.53-1.74-.2-2.53-4.03-4.37-8.06-8.74-12.11-13.09-.31-.33-.82-.64-1.25-.65-2.41-.06-4.82-.03-7.42-.03Z"/>
      <path class="cls-2" d="m42.64,143.4h2.08c38.8,0,77.59,0,116.39,0,.7,0,1.42.01,2.08.2,1.1.32,1.79,1.23,1.46,2.29-.24.77-.99,1.53-1.71,1.97-.52.33-1.37.17-2.07.17-38.64,0-77.29,0-115.93,0h-2.23v6.66c.66,0,1.3,0,1.95,0,15.87,0,31.74,0,47.61,0,2.49,0,3.52.68,3.52,2.3,0,1.62-1.06,2.32-3.51,2.32-2.02,0-4.03.08-6.04-.03-1.31-.07-2.26.39-3.23,1.23-6.91,6.02-13.87,11.99-20.8,17.99-1.78,1.54-3.67,2.67-6.15,2.11-4.89-1.09-6.74-6.6-3.41-10.34,2.88-3.24,5.86-6.39,8.79-9.58.33-.36.65-.74,1.15-1.31-.73-.03-1.25-.08-1.78-.08-6.55,0-13.1,0-19.65,0-2.35,0-3.1-.73-3.1-3.04,0-29.88,0-59.76,0-89.63,0-2.33.73-3.08,3.05-3.09,7,0,14.01,0,21.01,0,.2,0,.4,0,.6,0,1.49.09,2.49,1,2.51,2.29.02,1.28-.96,2.27-2.47,2.3-2.47.05-4.94.02-7.41.02-3.68,0-7.36,0-11.03,0-.54,0-1.08,0-1.67,0v75.22Zm34.36,16.26c-.04-.11-.08-.22-.12-.33-2.45,0-4.89-.03-7.34.03-.38,0-.84.3-1.12.6-4.08,4.37-8.13,8.77-12.19,13.16-.74.8-1.03,1.69-.17,2.52.83.8,1.74.56,2.56-.14,1.26-1.08,2.51-2.16,3.77-3.25,4.87-4.2,9.74-8.4,14.6-12.59Z"/>
    </g>
  </g>
</svg>